<mxfile host="65bd71144e">
    <diagram name="Page-1" id="HGpFZIgrX5HXIKhn64qT">
        <mxGraphModel dx="1330" dy="532" grid="1" gridSize="10" guides="1" tooltips="1" connect="1" arrows="1" fold="1" page="1" pageScale="1" pageWidth="827" pageHeight="1169" math="0" shadow="0">
            <root>
                <mxCell id="0"/>
                <mxCell id="1" parent="0"/>
                <mxCell id="73OWAqlcFQXWZOg_Nexa-3" value="&lt;p style=&quot;margin:0px;margin-top:4px;text-align:center;&quot;&gt;&lt;b&gt;&lt;i&gt;interface&lt;/i&gt; IAgent&amp;nbsp;&lt;/b&gt;&lt;/p&gt;&lt;hr size=&quot;1&quot; style=&quot;border-style:solid;&quot;&gt;&lt;p style=&quot;margin:0px;margin-left:4px;&quot;&gt;&lt;/p&gt;&lt;p style=&quot;margin:0px;margin-left:4px;&quot;&gt;+ Percept()&lt;/p&gt;&lt;p style=&quot;margin:0px;margin-left:4px;&quot;&gt;+ Deliberate()&lt;/p&gt;&lt;p style=&quot;margin:0px;margin-left:4px;&quot;&gt;+ Act()&lt;/p&gt;&lt;p style=&quot;margin:0px;margin-left:4px;&quot;&gt;+ ID() AgentID&lt;/p&gt;&lt;p style=&quot;margin:0px;margin-left:4px;&quot;&gt;&lt;span class=&quot;&quot;&gt;+ GetSyncChan() &lt;/span&gt;&lt;span class=&quot;hljs-keyword&quot;&gt;chan&lt;/span&gt;&lt;span class=&quot;&quot;&gt; &lt;/span&gt;&lt;span class=&quot;hljs-type&quot;&gt;bool&lt;/span&gt;&lt;/p&gt;&lt;p style=&quot;margin:0px;margin-left:4px;&quot;&gt;&lt;span class=&quot;&quot;&gt;+ ToJsonObj() &lt;/span&gt;&lt;span class=&quot;hljs-keyword&quot;&gt;interface&lt;/span&gt;&lt;span class=&quot;&quot;&gt;{}&lt;/span&gt;&lt;/p&gt;" style="verticalAlign=top;align=left;overflow=fill;html=1;whiteSpace=wrap;" parent="1" vertex="1">
                    <mxGeometry x="370" y="211" width="170" height="120" as="geometry"/>
                </mxCell>
                <mxCell id="73OWAqlcFQXWZOg_Nexa-19" style="edgeStyle=orthogonalEdgeStyle;rounded=0;orthogonalLoop=1;jettySize=auto;html=1;exitX=0.464;exitY=-0.007;exitDx=0;exitDy=0;entryX=0.5;entryY=1;entryDx=0;entryDy=0;endArrow=block;endFill=0;exitPerimeter=0;" parent="1" source="26" target="73OWAqlcFQXWZOg_Nexa-18" edge="1">
                    <mxGeometry relative="1" as="geometry">
                        <Array as="points">
                            <mxPoint x="504" y="570"/>
                            <mxPoint x="455" y="570"/>
                        </Array>
                        <mxPoint x="510" y="640" as="sourcePoint"/>
                    </mxGeometry>
                </mxCell>
                <mxCell id="8" style="edgeStyle=none;html=1;strokeWidth=1;endArrow=diamondThin;endFill=0;endSize=18;strokeColor=default;rounded=0;entryX=0.521;entryY=1.059;entryDx=0;entryDy=0;entryPerimeter=0;exitX=1.007;exitY=0.871;exitDx=0;exitDy=0;exitPerimeter=0;" parent="1" source="29" target="73OWAqlcFQXWZOg_Nexa-42" edge="1">
                    <mxGeometry relative="1" as="geometry">
                        <Array as="points">
                            <mxPoint x="790" y="755"/>
                        </Array>
                        <mxPoint x="590" y="746" as="sourcePoint"/>
                    </mxGeometry>
                </mxCell>
                <mxCell id="73OWAqlcFQXWZOg_Nexa-20" value="" style="edgeStyle=orthogonalEdgeStyle;rounded=0;orthogonalLoop=1;jettySize=auto;html=1;endArrow=block;endFill=0;" parent="1" source="73OWAqlcFQXWZOg_Nexa-12" target="73OWAqlcFQXWZOg_Nexa-18" edge="1">
                    <mxGeometry relative="1" as="geometry"/>
                </mxCell>
                <mxCell id="73OWAqlcFQXWZOg_Nexa-12" value="Hornet" style="swimlane;fontStyle=1;align=center;verticalAlign=top;childLayout=stackLayout;horizontal=1;startSize=26;horizontalStack=0;resizeParent=1;resizeParentMax=0;resizeLast=0;collapsible=1;marginBottom=0;whiteSpace=wrap;html=1;" parent="1" vertex="1">
                    <mxGeometry x="200" y="650" width="160" height="120" as="geometry"/>
                </mxCell>
                <mxCell id="73OWAqlcFQXWZOg_Nexa-14" value="" style="line;strokeWidth=1;fillColor=none;align=left;verticalAlign=middle;spacingTop=-1;spacingLeft=3;spacingRight=3;rotatable=0;labelPosition=right;points=[];portConstraint=eastwest;strokeColor=inherit;" parent="73OWAqlcFQXWZOg_Nexa-12" vertex="1">
                    <mxGeometry y="26" width="160" height="8" as="geometry"/>
                </mxCell>
                <mxCell id="73OWAqlcFQXWZOg_Nexa-15" value="&lt;div&gt;- killBee()&lt;/div&gt;&lt;div&gt;- findFlower()&lt;/div&gt;&lt;div&gt;&lt;span style=&quot;background-color: initial;&quot;&gt;- followBee(Bee)&lt;/span&gt;&lt;br&gt;&lt;/div&gt;&lt;div&gt;- findHive()&lt;/div&gt;" style="text;strokeColor=none;fillColor=none;align=left;verticalAlign=top;spacingLeft=4;spacingRight=4;overflow=hidden;rotatable=0;points=[[0,0.5],[1,0.5]];portConstraint=eastwest;whiteSpace=wrap;html=1;" parent="73OWAqlcFQXWZOg_Nexa-12" vertex="1">
                    <mxGeometry y="34" width="160" height="86" as="geometry"/>
                </mxCell>
                <mxCell id="2" style="edgeStyle=none;html=1;exitX=0.5;exitY=0;exitDx=0;exitDy=0;entryX=0.5;entryY=1;entryDx=0;entryDy=0;endArrow=block;endFill=0;" parent="1" source="73OWAqlcFQXWZOg_Nexa-18" target="73OWAqlcFQXWZOg_Nexa-3" edge="1">
                    <mxGeometry relative="1" as="geometry"/>
                </mxCell>
                <mxCell id="4" style="edgeStyle=none;html=1;exitX=0.75;exitY=0;exitDx=0;exitDy=0;entryX=0;entryY=0.75;entryDx=0;entryDy=0;endArrow=block;endFill=0;rounded=0;" parent="1" source="73OWAqlcFQXWZOg_Nexa-18" target="73OWAqlcFQXWZOg_Nexa-33" edge="1">
                    <mxGeometry relative="1" as="geometry">
                        <Array as="points">
                            <mxPoint x="503" y="360"/>
                        </Array>
                    </mxGeometry>
                </mxCell>
                <mxCell id="73OWAqlcFQXWZOg_Nexa-18" value="&lt;p style=&quot;margin:0px;margin-top:4px;text-align:center;&quot;&gt;&lt;i&gt;&amp;lt;&amp;lt;Abstract&amp;gt;&amp;gt;&lt;/i&gt;&lt;br&gt;&lt;b&gt;Agent&lt;/b&gt;&lt;/p&gt;&lt;hr size=&quot;1&quot; style=&quot;border-style:solid;&quot;&gt;&lt;div&gt;&lt;span style=&quot;background-color: initial;&quot;&gt;&amp;nbsp;- speed : int&lt;/span&gt;&lt;/div&gt;" style="verticalAlign=top;align=left;overflow=fill;html=1;whiteSpace=wrap;" parent="1" vertex="1">
                    <mxGeometry x="360" y="410" width="190" height="80" as="geometry"/>
                </mxCell>
                <mxCell id="73OWAqlcFQXWZOg_Nexa-22" value="&lt;p style=&quot;margin:0px;margin-top:4px;text-align:center;&quot;&gt;&lt;b&gt;Simulation&lt;/b&gt;&lt;/p&gt;&lt;hr size=&quot;1&quot; style=&quot;border-style:solid;&quot;&gt;&lt;p style=&quot;margin:0px;margin-left:4px;&quot;&gt;+ Env : Environnement&lt;/p&gt;&lt;hr size=&quot;1&quot; style=&quot;border-style:solid;&quot;&gt;&lt;p style=&quot;margin:0px;margin-left:4px;&quot;&gt;+ Run()&lt;/p&gt;&lt;p style=&quot;margin:0px;margin-left:4px;&quot;&gt;+ Log()&lt;/p&gt;&lt;p style=&quot;margin:0px;margin-left:4px;&quot;&gt;+ Print()&lt;/p&gt;" style="verticalAlign=top;align=left;overflow=fill;html=1;whiteSpace=wrap;" parent="1" vertex="1">
                    <mxGeometry x="75" y="35" width="160" height="105" as="geometry"/>
                </mxCell>
                <mxCell id="73OWAqlcFQXWZOg_Nexa-25" style="edgeStyle=orthogonalEdgeStyle;rounded=0;orthogonalLoop=1;jettySize=auto;html=1;exitX=0;exitY=0.5;exitDx=0;exitDy=0;endArrow=diamondThin;endFill=1;endSize=16;" parent="1" source="73OWAqlcFQXWZOg_Nexa-23" target="73OWAqlcFQXWZOg_Nexa-22" edge="1">
                    <mxGeometry relative="1" as="geometry"/>
                </mxCell>
                <mxCell id="73OWAqlcFQXWZOg_Nexa-23" value="&lt;p style=&quot;margin:0px;margin-top:4px;text-align:center;&quot;&gt;&lt;b&gt;Environnement&lt;/b&gt;&lt;/p&gt;&lt;hr size=&quot;1&quot; style=&quot;border-style:solid;&quot;&gt;&lt;p style=&quot;margin:0px;margin-left:4px;&quot;&gt;+ Object: []Object&lt;/p&gt;&lt;p style=&quot;margin:0px;margin-left:4px;&quot;&gt;+ Agent : []Agent&lt;/p&gt;&lt;hr size=&quot;1&quot; style=&quot;border-style:solid;&quot;&gt;&lt;p style=&quot;margin:0px;margin-left:4px;&quot;&gt;+ GrowFlower()&lt;/p&gt;&lt;p style=&quot;margin:0px;margin-left:4px;&quot;&gt;+ GenerateHornet()&lt;/p&gt;" style="verticalAlign=top;align=left;overflow=fill;html=1;whiteSpace=wrap;" parent="1" vertex="1">
                    <mxGeometry x="390" y="32.5" width="130" height="110" as="geometry"/>
                </mxCell>
                <mxCell id="73OWAqlcFQXWZOg_Nexa-28" value="&lt;p style=&quot;margin:0px;margin-top:4px;text-align:center;&quot;&gt;&lt;b&gt;&lt;font face=&quot;Helvetica&quot;&gt;&lt;i&gt;interface&lt;/i&gt; IObject&amp;nbsp;&lt;/font&gt;&lt;/b&gt;&lt;/p&gt;&lt;hr size=&quot;1&quot; style=&quot;border-style:solid;&quot;&gt;&lt;p style=&quot;margin:0px;margin-left:4px;&quot;&gt;&lt;/p&gt;&lt;pre lang=&quot;go&quot; class=&quot;code highlight&quot;&gt;&lt;font face=&quot;Helvetica&quot;&gt;&lt;span class=&quot;&quot;&gt;+ Interact()&lt;/span&gt;&lt;br&gt;&lt;span class=&quot;&quot;&gt;+ Copy() Object&lt;/span&gt;&lt;br&gt;&lt;span class=&quot;&quot;&gt;+ ChangeTo(Object)&lt;/span&gt;&lt;br&gt;&lt;span class=&quot;&quot;&gt;+ ToJsonObj() &lt;/span&gt;&lt;span class=&quot;hljs-keyword&quot;&gt;interface&lt;/span&gt;&lt;span class=&quot;&quot;&gt;{}&lt;/span&gt;&lt;/font&gt;&lt;/pre&gt;" style="verticalAlign=top;align=left;overflow=fill;html=1;whiteSpace=wrap;" parent="1" vertex="1">
                    <mxGeometry x="702.5" y="25" width="170" height="120" as="geometry"/>
                </mxCell>
                <mxCell id="6" style="edgeStyle=none;html=1;exitX=0.5;exitY=0;exitDx=0;exitDy=0;strokeWidth=1;endArrow=block;endFill=0;endSize=6;entryX=0.5;entryY=1;entryDx=0;entryDy=0;" parent="1" source="73OWAqlcFQXWZOg_Nexa-33" target="73OWAqlcFQXWZOg_Nexa-28" edge="1">
                    <mxGeometry relative="1" as="geometry">
                        <mxPoint x="712.5" y="190" as="targetPoint"/>
                    </mxGeometry>
                </mxCell>
                <mxCell id="73OWAqlcFQXWZOg_Nexa-33" value="&lt;p style=&quot;margin:0px;margin-top:4px;text-align:center;&quot;&gt;&lt;i&gt;&amp;lt;&amp;lt;Abstract&amp;gt;&amp;gt;&lt;/i&gt;&lt;br&gt;&lt;b&gt;Object&lt;/b&gt;&lt;/p&gt;&lt;hr size=&quot;1&quot; style=&quot;border-style:solid;&quot;&gt;&lt;div&gt;&amp;nbsp;- position : Coordinate&lt;/div&gt;" style="verticalAlign=top;align=left;overflow=fill;html=1;whiteSpace=wrap;" parent="1" vertex="1">
                    <mxGeometry x="692.5" y="310" width="190" height="70" as="geometry"/>
                </mxCell>
                <mxCell id="73OWAqlcFQXWZOg_Nexa-34" style="edgeStyle=orthogonalEdgeStyle;rounded=0;orthogonalLoop=1;jettySize=auto;html=1;endArrow=diamondThin;endFill=1;endSize=16;entryX=1;entryY=0.5;entryDx=0;entryDy=0;exitX=0;exitY=0.5;exitDx=0;exitDy=0;" parent="1" source="73OWAqlcFQXWZOg_Nexa-28" target="73OWAqlcFQXWZOg_Nexa-23" edge="1">
                    <mxGeometry relative="1" as="geometry">
                        <mxPoint x="790" y="85" as="sourcePoint"/>
                        <mxPoint x="530" y="84.5" as="targetPoint"/>
                    </mxGeometry>
                </mxCell>
                <mxCell id="73OWAqlcFQXWZOg_Nexa-49" style="edgeStyle=orthogonalEdgeStyle;rounded=0;orthogonalLoop=1;jettySize=auto;html=1;exitX=0.5;exitY=0;exitDx=0;exitDy=0;entryX=1;entryY=0.5;entryDx=0;entryDy=0;endArrow=block;endFill=0;" parent="1" source="73OWAqlcFQXWZOg_Nexa-35" target="73OWAqlcFQXWZOg_Nexa-33" edge="1">
                    <mxGeometry relative="1" as="geometry">
                        <mxPoint x="992.5" y="280" as="targetPoint"/>
                    </mxGeometry>
                </mxCell>
                <mxCell id="73OWAqlcFQXWZOg_Nexa-35" value="Flower" style="swimlane;fontStyle=1;align=center;verticalAlign=top;childLayout=stackLayout;horizontal=1;startSize=26;horizontalStack=0;resizeParent=1;resizeParentMax=0;resizeLast=0;collapsible=1;marginBottom=0;whiteSpace=wrap;html=1;" parent="1" vertex="1">
                    <mxGeometry x="967" y="497" width="160" height="88" as="geometry"/>
                </mxCell>
                <mxCell id="73OWAqlcFQXWZOg_Nexa-36" value="- quantityPollen : int&lt;br&gt;- pollinated: boolean&lt;br&gt;- gender: [male, female]" style="text;strokeColor=none;fillColor=none;align=left;verticalAlign=top;spacingLeft=4;spacingRight=4;overflow=hidden;rotatable=0;points=[[0,0.5],[1,0.5]];portConstraint=eastwest;whiteSpace=wrap;html=1;" parent="73OWAqlcFQXWZOg_Nexa-35" vertex="1">
                    <mxGeometry y="26" width="160" height="54" as="geometry"/>
                </mxCell>
                <mxCell id="73OWAqlcFQXWZOg_Nexa-37" value="" style="line;strokeWidth=1;fillColor=none;align=left;verticalAlign=middle;spacingTop=-1;spacingLeft=3;spacingRight=3;rotatable=0;labelPosition=right;points=[];portConstraint=eastwest;strokeColor=inherit;" parent="73OWAqlcFQXWZOg_Nexa-35" vertex="1">
                    <mxGeometry y="80" width="160" height="8" as="geometry"/>
                </mxCell>
                <mxCell id="73OWAqlcFQXWZOg_Nexa-51" style="edgeStyle=orthogonalEdgeStyle;rounded=0;orthogonalLoop=1;jettySize=auto;html=1;exitX=0.5;exitY=0;exitDx=0;exitDy=0;entryX=0.5;entryY=1;entryDx=0;entryDy=0;endArrow=block;endFill=0;" parent="1" source="73OWAqlcFQXWZOg_Nexa-39" target="73OWAqlcFQXWZOg_Nexa-33" edge="1">
                    <mxGeometry relative="1" as="geometry">
                        <mxPoint x="1152.5" y="220" as="targetPoint"/>
                    </mxGeometry>
                </mxCell>
                <mxCell id="73OWAqlcFQXWZOg_Nexa-39" value="Hive" style="swimlane;fontStyle=1;align=center;verticalAlign=top;childLayout=stackLayout;horizontal=1;startSize=26;horizontalStack=0;resizeParent=1;resizeParentMax=0;resizeLast=0;collapsible=1;marginBottom=0;whiteSpace=wrap;html=1;" parent="1" vertex="1">
                    <mxGeometry x="682.5" y="490" width="210" height="180" as="geometry"/>
                </mxCell>
                <mxCell id="73OWAqlcFQXWZOg_Nexa-40" value="- quantityHoney : int&lt;br&gt;- quantityNectar : int&lt;br&gt;- quantityPollen : int&lt;br&gt;- queen : boolean&lt;br&gt;- minHoney : int" style="text;strokeColor=none;fillColor=none;align=left;verticalAlign=top;spacingLeft=4;spacingRight=4;overflow=hidden;rotatable=0;points=[[0,0.5],[1,0.5]];portConstraint=eastwest;whiteSpace=wrap;html=1;" parent="73OWAqlcFQXWZOg_Nexa-39" vertex="1">
                    <mxGeometry y="26" width="210" height="84" as="geometry"/>
                </mxCell>
                <mxCell id="73OWAqlcFQXWZOg_Nexa-41" value="" style="line;strokeWidth=1;fillColor=none;align=left;verticalAlign=middle;spacingTop=-1;spacingLeft=3;spacingRight=3;rotatable=0;labelPosition=right;points=[];portConstraint=eastwest;strokeColor=inherit;" parent="73OWAqlcFQXWZOg_Nexa-39" vertex="1">
                    <mxGeometry y="110" width="210" height="8" as="geometry"/>
                </mxCell>
                <mxCell id="73OWAqlcFQXWZOg_Nexa-42" value="+ IsAlive(): bool&lt;br&gt;+ Die()" style="text;strokeColor=none;fillColor=none;align=left;verticalAlign=top;spacingLeft=4;spacingRight=4;overflow=hidden;rotatable=0;points=[[0,0.5],[1,0.5]];portConstraint=eastwest;whiteSpace=wrap;html=1;" parent="73OWAqlcFQXWZOg_Nexa-39" vertex="1">
                    <mxGeometry y="118" width="210" height="62" as="geometry"/>
                </mxCell>
                <mxCell id="73OWAqlcFQXWZOg_Nexa-52" value="«interface»&lt;br&gt;&lt;b&gt;BeeBehavior&lt;/b&gt;" style="html=1;whiteSpace=wrap;" parent="1" vertex="1">
                    <mxGeometry x="455" y="950" width="110" height="50" as="geometry"/>
                </mxCell>
                <mxCell id="73OWAqlcFQXWZOg_Nexa-53" style="edgeStyle=orthogonalEdgeStyle;rounded=0;orthogonalLoop=1;jettySize=auto;html=1;exitX=0.5;exitY=0;exitDx=0;exitDy=0;endArrow=diamondThin;endFill=1;endSize=16;entryX=0.489;entryY=1.003;entryDx=0;entryDy=0;entryPerimeter=0;" parent="1" source="73OWAqlcFQXWZOg_Nexa-52" target="28" edge="1">
                    <mxGeometry relative="1" as="geometry">
                        <mxPoint x="509" y="870" as="targetPoint"/>
                    </mxGeometry>
                </mxCell>
                <mxCell id="73OWAqlcFQXWZOg_Nexa-55" style="edgeStyle=orthogonalEdgeStyle;rounded=0;orthogonalLoop=1;jettySize=auto;html=1;exitX=0.5;exitY=0;exitDx=0;exitDy=0;entryX=0.5;entryY=1;entryDx=0;entryDy=0;endArrow=block;endFill=0;" parent="1" source="20" target="73OWAqlcFQXWZOg_Nexa-52" edge="1">
                    <mxGeometry relative="1" as="geometry"/>
                </mxCell>
                <mxCell id="73OWAqlcFQXWZOg_Nexa-57" style="edgeStyle=orthogonalEdgeStyle;rounded=0;orthogonalLoop=1;jettySize=auto;html=1;exitX=0.5;exitY=0;exitDx=0;exitDy=0;endArrow=block;endFill=0;" parent="1" source="22" target="73OWAqlcFQXWZOg_Nexa-52" edge="1">
                    <mxGeometry relative="1" as="geometry">
                        <mxPoint x="510" y="1000" as="targetPoint"/>
                    </mxGeometry>
                </mxCell>
                <mxCell id="5" style="edgeStyle=orthogonalEdgeStyle;rounded=0;orthogonalLoop=1;jettySize=auto;html=1;exitX=0.5;exitY=0;exitDx=0;exitDy=0;endArrow=diamondThin;endFill=1;endSize=16;entryX=0.5;entryY=1;entryDx=0;entryDy=0;" parent="1" source="73OWAqlcFQXWZOg_Nexa-3" target="73OWAqlcFQXWZOg_Nexa-23" edge="1">
                    <mxGeometry relative="1" as="geometry">
                        <mxPoint x="830" y="95" as="sourcePoint"/>
                        <mxPoint x="530" y="95" as="targetPoint"/>
                    </mxGeometry>
                </mxCell>
                <mxCell id="9" value="Colonie" style="swimlane;fontStyle=1;align=center;verticalAlign=top;childLayout=stackLayout;horizontal=1;startSize=26;horizontalStack=0;resizeParent=1;resizeParentMax=0;resizeLast=0;collapsible=1;marginBottom=0;whiteSpace=wrap;html=1;" parent="1" vertex="1">
                    <mxGeometry x="780" y="860" width="160" height="100" as="geometry"/>
                </mxCell>
                <mxCell id="11" value="" style="line;strokeWidth=1;fillColor=none;align=left;verticalAlign=middle;spacingTop=-1;spacingLeft=3;spacingRight=3;rotatable=0;labelPosition=right;points=[];portConstraint=eastwest;strokeColor=inherit;" parent="9" vertex="1">
                    <mxGeometry y="26" width="160" height="38" as="geometry"/>
                </mxCell>
                <mxCell id="41" value="- growColony()&lt;br&gt;" style="text;strokeColor=none;fillColor=none;align=left;verticalAlign=top;spacingLeft=4;spacingRight=4;overflow=hidden;rotatable=0;points=[[0,0.5],[1,0.5]];portConstraint=eastwest;whiteSpace=wrap;html=1;" parent="9" vertex="1">
                    <mxGeometry y="64" width="160" height="36" as="geometry"/>
                </mxCell>
                <mxCell id="14" style="edgeStyle=orthogonalEdgeStyle;rounded=0;orthogonalLoop=1;jettySize=auto;html=1;exitX=0.5;exitY=0;exitDx=0;exitDy=0;entryX=0.5;entryY=1;entryDx=0;entryDy=0;endArrow=block;endFill=0;" parent="1" source="24" target="73OWAqlcFQXWZOg_Nexa-52" edge="1">
                    <mxGeometry relative="1" as="geometry">
                        <mxPoint x="520" y="1009.9999999999998" as="targetPoint"/>
                        <mxPoint x="585" y="1069.9999999999998" as="sourcePoint"/>
                    </mxGeometry>
                </mxCell>
                <mxCell id="20" value="&lt;i style=&quot;font-weight: 400;&quot;&gt;ConcreteBehavior&lt;/i&gt;&lt;div style=&quot;&quot;&gt;workerBee&lt;/div&gt;" style="swimlane;fontStyle=1;align=center;verticalAlign=top;childLayout=stackLayout;horizontal=1;startSize=40;horizontalStack=0;resizeParent=1;resizeParentMax=0;resizeLast=0;collapsible=1;marginBottom=0;whiteSpace=wrap;html=1;" parent="1" vertex="1">
                    <mxGeometry x="170" y="1060" width="190" height="148" as="geometry"/>
                </mxCell>
                <mxCell id="43" value="- gender : female" style="text;strokeColor=none;fillColor=none;align=left;verticalAlign=top;spacingLeft=4;spacingRight=4;overflow=hidden;rotatable=0;points=[[0,0.5],[1,0.5]];portConstraint=eastwest;whiteSpace=wrap;html=1;" parent="20" vertex="1">
                    <mxGeometry y="40" width="190" height="70" as="geometry"/>
                </mxCell>
                <mxCell id="21" value="" style="line;strokeWidth=1;fillColor=none;align=left;verticalAlign=middle;spacingTop=-1;spacingLeft=3;spacingRight=3;rotatable=0;labelPosition=right;points=[];portConstraint=eastwest;strokeColor=inherit;" parent="20" vertex="1">
                    <mxGeometry y="110" width="190" height="38" as="geometry"/>
                </mxCell>
                <mxCell id="22" value="&lt;i style=&quot;font-weight: 400;&quot;&gt;ConcreteBehavior&lt;/i&gt;&lt;div style=&quot;&quot;&gt;guardianBee&lt;/div&gt;" style="swimlane;fontStyle=1;align=center;verticalAlign=top;childLayout=stackLayout;horizontal=1;startSize=40;horizontalStack=0;resizeParent=1;resizeParentMax=0;resizeLast=0;collapsible=1;marginBottom=0;whiteSpace=wrap;html=1;" parent="1" vertex="1">
                    <mxGeometry x="430" y="1060" width="160" height="190" as="geometry"/>
                </mxCell>
                <mxCell id="42" value="- gender : female" style="text;strokeColor=none;fillColor=none;align=left;verticalAlign=top;spacingLeft=4;spacingRight=4;overflow=hidden;rotatable=0;points=[[0,0.5],[1,0.5]];portConstraint=eastwest;whiteSpace=wrap;html=1;" parent="22" vertex="1">
                    <mxGeometry y="40" width="160" height="70" as="geometry"/>
                </mxCell>
                <mxCell id="23" value="" style="line;strokeWidth=1;fillColor=none;align=left;verticalAlign=middle;spacingTop=-1;spacingLeft=3;spacingRight=3;rotatable=0;labelPosition=right;points=[];portConstraint=eastwest;strokeColor=inherit;" parent="22" vertex="1">
                    <mxGeometry y="110" width="160" height="38" as="geometry"/>
                </mxCell>
                <mxCell id="38" value="- alert&lt;span style=&quot;background-color: initial;&quot;&gt;()&lt;br&gt;- checkForPredators()&lt;br&gt;&lt;/span&gt;" style="text;strokeColor=none;fillColor=none;align=left;verticalAlign=top;spacingLeft=4;spacingRight=4;overflow=hidden;rotatable=0;points=[[0,0.5],[1,0.5]];portConstraint=eastwest;whiteSpace=wrap;html=1;" parent="22" vertex="1">
                    <mxGeometry y="148" width="160" height="42" as="geometry"/>
                </mxCell>
                <mxCell id="24" value="&lt;i style=&quot;font-weight: 400;&quot;&gt;ConcreteBehavior&lt;/i&gt;&lt;div style=&quot;&quot;&gt;foragerBee&lt;/div&gt;" style="swimlane;fontStyle=1;align=center;verticalAlign=top;childLayout=stackLayout;horizontal=1;startSize=40;horizontalStack=0;resizeParent=1;resizeParentMax=0;resizeLast=0;collapsible=1;marginBottom=0;whiteSpace=wrap;html=1;" parent="1" vertex="1">
                    <mxGeometry x="650" y="1060" width="200" height="250" as="geometry"/>
                </mxCell>
                <mxCell id="34" value="- visitedFlowers: []Coordinate&lt;br&gt;&lt;div&gt;- maxNectar : int&lt;/div&gt;&lt;div&gt;- nectarQuantity : int&lt;/div&gt;&lt;div&gt;- pollenQuantity : int&lt;/div&gt;&lt;div&gt;- gender : female&lt;/div&gt;" style="text;strokeColor=none;fillColor=none;align=left;verticalAlign=top;spacingLeft=4;spacingRight=4;overflow=hidden;rotatable=0;points=[[0,0.5],[1,0.5]];portConstraint=eastwest;whiteSpace=wrap;html=1;" parent="24" vertex="1">
                    <mxGeometry y="40" width="200" height="80" as="geometry"/>
                </mxCell>
                <mxCell id="25" value="" style="line;strokeWidth=1;fillColor=none;align=left;verticalAlign=middle;spacingTop=-1;spacingLeft=3;spacingRight=3;rotatable=0;labelPosition=right;points=[];portConstraint=eastwest;strokeColor=inherit;" parent="24" vertex="1">
                    <mxGeometry y="120" width="200" height="38" as="geometry"/>
                </mxCell>
                <mxCell id="32" value="- gatherFlower()&lt;div&gt;- findFlower()&lt;/div&gt;&lt;div&gt;- comeBackToHive()&lt;/div&gt;&lt;div&gt;- saveFlowerLocation()&lt;/div&gt;&lt;div&gt;- shareFlowerLocation()&lt;/div&gt;" style="text;strokeColor=none;fillColor=none;align=left;verticalAlign=top;spacingLeft=4;spacingRight=4;overflow=hidden;rotatable=0;points=[[0,0.5],[1,0.5]];portConstraint=eastwest;whiteSpace=wrap;html=1;" parent="24" vertex="1">
                    <mxGeometry y="158" width="200" height="92" as="geometry"/>
                </mxCell>
                <mxCell id="26" value="Bee" style="swimlane;fontStyle=1;align=center;verticalAlign=top;childLayout=stackLayout;horizontal=1;startSize=26;horizontalStack=0;resizeParent=1;resizeParentMax=0;resizeLast=0;collapsible=1;marginBottom=0;whiteSpace=wrap;html=1;" parent="1" vertex="1">
                    <mxGeometry x="430" y="654" width="160" height="230" as="geometry"/>
                </mxCell>
                <mxCell id="29" value="&lt;div&gt;- hive : Hive&lt;br&gt;&lt;/div&gt;&lt;div&gt;- birthDate: Time&lt;/div&gt;&lt;div&gt;&lt;span style=&quot;background-color: initial;&quot;&gt;- job : [worker, guardian, forager]&lt;/span&gt;&lt;br&gt;&lt;/div&gt;&lt;div&gt;&lt;span style=&quot;background-color: initial;&quot;&gt;- gender : [male, female]&lt;/span&gt;&lt;/div&gt;" style="text;strokeColor=none;fillColor=none;align=left;verticalAlign=top;spacingLeft=4;spacingRight=4;overflow=hidden;rotatable=0;points=[[0,0.5],[1,0.5]];portConstraint=eastwest;whiteSpace=wrap;html=1;" parent="26" vertex="1">
                    <mxGeometry y="26" width="160" height="86" as="geometry"/>
                </mxCell>
                <mxCell id="27" value="" style="line;strokeWidth=1;fillColor=none;align=left;verticalAlign=middle;spacingTop=-1;spacingLeft=3;spacingRight=3;rotatable=0;labelPosition=right;points=[];portConstraint=eastwest;strokeColor=inherit;" parent="26" vertex="1">
                    <mxGeometry y="112" width="160" height="8" as="geometry"/>
                </mxCell>
                <mxCell id="28" value="&lt;span style=&quot;background-color: initial;&quot;&gt;- runAwayFromPredator()&lt;/span&gt;&lt;br&gt;&lt;div&gt;- shareLocation()&lt;/div&gt;&lt;div&gt;- findAJob()&lt;/div&gt;&lt;div&gt;- becomeForager()&lt;/div&gt;&lt;div&gt;+ Die()&lt;/div&gt;&lt;div&gt;- fightPredator()&lt;/div&gt;" style="text;strokeColor=none;fillColor=none;align=left;verticalAlign=top;spacingLeft=4;spacingRight=4;overflow=hidden;rotatable=0;points=[[0,0.5],[1,0.5]];portConstraint=eastwest;whiteSpace=wrap;html=1;" parent="26" vertex="1">
                    <mxGeometry y="120" width="160" height="110" as="geometry"/>
                </mxCell>
                <mxCell id="35" value="CoordinateType" style="swimlane;fontStyle=1;align=center;verticalAlign=top;childLayout=stackLayout;horizontal=1;startSize=26;horizontalStack=0;resizeParent=1;resizeParentMax=0;resizeLast=0;collapsible=1;marginBottom=0;whiteSpace=wrap;html=1;" parent="1" vertex="1">
                    <mxGeometry x="990" y="996" width="210" height="94" as="geometry"/>
                </mxCell>
                <mxCell id="37" value="+ x : int&lt;br&gt;+ y : int" style="text;strokeColor=none;fillColor=none;align=left;verticalAlign=top;spacingLeft=4;spacingRight=4;overflow=hidden;rotatable=0;points=[[0,0.5],[1,0.5]];portConstraint=eastwest;whiteSpace=wrap;html=1;" parent="35" vertex="1">
                    <mxGeometry y="26" width="210" height="30" as="geometry"/>
                </mxCell>
                <mxCell id="36" value="" style="line;strokeWidth=1;fillColor=none;align=left;verticalAlign=middle;spacingTop=-1;spacingLeft=3;spacingRight=3;rotatable=0;labelPosition=right;points=[];portConstraint=eastwest;strokeColor=inherit;" parent="35" vertex="1">
                    <mxGeometry y="56" width="210" height="38" as="geometry"/>
                </mxCell>
            </root>
        </mxGraphModel>
    </diagram>
</mxfile>